HIERARCHY
ROOT Model
{
	OFFSET 0 0 0
	CHANNELS 6 Xposition Yposition Zposition Zrotation Xrotation Yrotation
	JOINT Model1
	{
		OFFSET 0 -2.25479 2.99384
		CHANNELS 3 Zrotation Xrotation Yrotation
		JOINT Model2
		{
			OFFSET 12.111 0 0
			CHANNELS 3 Zrotation Xrotation Yrotation
			JOINT Model3
			{
				OFFSET 11.5502 0 0
				CHANNELS 3 Zrotation Xrotation Yrotation
				JOINT Model4
				{
					OFFSET 11.781 0 0
					CHANNELS 3 Zrotation Xrotation Yrotation
					JOINT Model5
					{
						OFFSET 20.0601 0 0
						CHANNELS 3 Zrotation Xrotation Yrotation
						JOINT Model6
						{
							OFFSET 11.1962 0 0
							CHANNELS 3 Zrotation Xrotation Yrotation
							End Site
							{
								OFFSET 0 0 0
							}
						}
					}
					JOINT Model7
					{
						OFFSET 10.8223 0.417534 3.51114
						CHANNELS 3 Zrotation Xrotation Yrotation
						JOINT Model8
						{
							OFFSET -6.07944 0 0
							CHANNELS 3 Zrotation Xrotation Yrotation
							JOINT Model9
							{
								OFFSET -0.277405 10.39 -0.051239
								CHANNELS 3 Zrotation Xrotation Yrotation
								JOINT Model10
								{
									OFFSET -3.43909 -0.282043 1.86679
									CHANNELS 3 Zrotation Xrotation Yrotation
									JOINT Model11
									{
										OFFSET 13.0269 0 0
										CHANNELS 3 Zrotation Xrotation Yrotation
										JOINT Model12
										{
											OFFSET 10.8866 0 0
											CHANNELS 3 Zrotation Xrotation Yrotation
											JOINT Model13
											{
												OFFSET 16.7317 0 0
												CHANNELS 3 Zrotation Xrotation Yrotation
												JOINT Model14
												{
													OFFSET 11.8292 0 0
													CHANNELS 3 Zrotation Xrotation Yrotation
													JOINT Model15
													{
														OFFSET 4.82751 -3.73566 -0.836517
														CHANNELS 3 Zrotation Xrotation Yrotation
														JOINT Model16
														{
															OFFSET 3.75311 -0.0582886 -0.0186462
															CHANNELS 3 Zrotation Xrotation Yrotation
															JOINT Model17
															{
																OFFSET 2.88689 0.0192337 0.014801
																CHANNELS 3 Zrotation Xrotation Yrotation
																End Site
																{
																	OFFSET 0 0 0
																}
															}
														}
													}
													JOINT Model18
													{
														OFFSET 9.72197 -3.06458 0.23877
														CHANNELS 3 Zrotation Xrotation Yrotation
														JOINT Model19
														{
															OFFSET 4.61131 0 0
															CHANNELS 3 Zrotation Xrotation Yrotation
															JOINT Model20
															{
																OFFSET 2.8969 -7.62939e-006 0
																CHANNELS 3 Zrotation Xrotation Yrotation
																End Site
																{
																	OFFSET 0 0 0
																}
															}
														}
													}
													JOINT Model21
													{
														OFFSET 9.54431 -0.745064 0.588928
														CHANNELS 3 Zrotation Xrotation Yrotation
														JOINT Model22
														{
															OFFSET 5.33978 0 0
															CHANNELS 3 Zrotation Xrotation Yrotation
															JOINT Model23
															{
																OFFSET 3.03619 7.62939e-006 0
																CHANNELS 3 Zrotation Xrotation Yrotation
																End Site
																{
																	OFFSET 0 0 0
																}
															}
														}
													}
													JOINT Model24
													{
														OFFSET 9.47758 1.51286 0.485107
														CHANNELS 3 Zrotation Xrotation Yrotation
														JOINT Model25
														{
															OFFSET 4.96136 7.62939e-006 0
															CHANNELS 3 Zrotation Xrotation Yrotation
															JOINT Model26
															{
																OFFSET 2.51965 0 0
																CHANNELS 3 Zrotation Xrotation Yrotation
																End Site
																{
																	OFFSET 0 0 0
																}
															}
														}
													}
													JOINT Model27
													{
														OFFSET 9.34247 3.34117 -0.239288
														CHANNELS 3 Zrotation Xrotation Yrotation
														JOINT Model28
														{
															OFFSET 3.28259 2.28882e-005 0
															CHANNELS 3 Zrotation Xrotation Yrotation
															JOINT Model29
															{
																OFFSET 2.1292 0 0
																CHANNELS 3 Zrotation Xrotation Yrotation
																End Site
																{
																	OFFSET 0 0 0
																}
															}
														}
													}
												}
											}
										}
									}
								}
							}
						}
					}
					JOINT Model30
					{
						OFFSET 10.8223 0.4179 -3.51108
						CHANNELS 3 Zrotation Xrotation Yrotation
						JOINT Model31
						{
							OFFSET 6.07944 0 0
							CHANNELS 3 Zrotation Xrotation Yrotation
							JOINT Model32
							{
								OFFSET 0.277405 -10.39 0.051239
								CHANNELS 3 Zrotation Xrotation Yrotation
								JOINT Model33
								{
									OFFSET 3.43909 0.282043 -1.86679
									CHANNELS 3 Zrotation Xrotation Yrotation
									JOINT Model34
									{
										OFFSET -13.0269 0 0
										CHANNELS 3 Zrotation Xrotation Yrotation
										JOINT Model35
										{
											OFFSET -10.8866 0 0
											CHANNELS 3 Zrotation Xrotation Yrotation
											JOINT Model36
											{
												OFFSET -16.7317 0 0
												CHANNELS 3 Zrotation Xrotation Yrotation
												JOINT Model37
												{
													OFFSET -11.8292 0 0
													CHANNELS 3 Zrotation Xrotation Yrotation
													JOINT Model38
													{
														OFFSET -4.82751 3.73566 0.836517
														CHANNELS 3 Zrotation Xrotation Yrotation
														JOINT Model39
														{
															OFFSET -3.75311 0.0582886 0.0186462
															CHANNELS 3 Zrotation Xrotation Yrotation
															JOINT Model40
															{
																OFFSET -2.88687 -0.0192337 -0.014801
																CHANNELS 3 Zrotation Xrotation Yrotation
																End Site
																{
																	OFFSET 0 0 0
																}
															}
														}
													}
													JOINT Model41
													{
														OFFSET -9.72198 3.06459 -0.23877
														CHANNELS 3 Zrotation Xrotation Yrotation
														JOINT Model42
														{
															OFFSET -4.6113 0 0
															CHANNELS 3 Zrotation Xrotation Yrotation
															JOINT Model43
															{
																OFFSET -2.89691 0 0
																CHANNELS 3 Zrotation Xrotation Yrotation
																End Site
																{
																	OFFSET 0 0 0
																}
															}
														}
													}
													JOINT Model44
													{
														OFFSET -9.54431 0.745064 -0.588928
														CHANNELS 3 Zrotation Xrotation Yrotation
														JOINT Model45
														{
															OFFSET -5.33978 0 0
															CHANNELS 3 Zrotation Xrotation Yrotation
															JOINT Model46
															{
																OFFSET -3.03619 -1.52588e-005 0
																CHANNELS 3 Zrotation Xrotation Yrotation
																End Site
																{
																	OFFSET 0 0 0
																}
															}
														}
													}
													JOINT Model47
													{
														OFFSET -9.4776 -1.51286 -0.485107
														CHANNELS 3 Zrotation Xrotation Yrotation
														JOINT Model48
														{
															OFFSET -4.96136 -1.52588e-005 0
															CHANNELS 3 Zrotation Xrotation Yrotation
															JOINT Model49
															{
																OFFSET -2.51965 0 0
																CHANNELS 3 Zrotation Xrotation Yrotation
																End Site
																{
																	OFFSET 0 0 0
																}
															}
														}
													}
													JOINT Model50
													{
														OFFSET -9.34247 -3.34118 0.239288
														CHANNELS 3 Zrotation Xrotation Yrotation
														JOINT Model51
														{
															OFFSET -3.28259 -2.28882e-005 0
															CHANNELS 3 Zrotation Xrotation Yrotation
															JOINT Model52
															{
																OFFSET -2.12921 0 0
																CHANNELS 3 Zrotation Xrotation Yrotation
																End Site
																{
																	OFFSET 0 0 0
																}
															}
														}
													}
												}
											}
										}
									}
								}
							}
						}
					}
				}
			}
		}
	}
	JOINT Model53
	{
		OFFSET 4.38025 -2.14632 -1.11517
		CHANNELS 3 Zrotation Xrotation Yrotation
		JOINT Model54
		{
			OFFSET 0 0 4.94998
			CHANNELS 3 Zrotation Xrotation Yrotation
			JOINT Model55
			{
				OFFSET 18.5642 0 0
				CHANNELS 3 Zrotation Xrotation Yrotation
				JOINT Model56
				{
					OFFSET 21.2884 0 0
					CHANNELS 3 Zrotation Xrotation Yrotation
					JOINT Model57
					{
						OFFSET 30.261 0 0
						CHANNELS 3 Zrotation Xrotation Yrotation
						JOINT Model58
						{
							OFFSET 11.7259 0 0
							CHANNELS 3 Zrotation Xrotation Yrotation
							JOINT Model59
							{
								OFFSET 10.682 0 0
								CHANNELS 3 Zrotation Xrotation Yrotation
								End Site
								{
									OFFSET 0 0 0
								}
							}
						}
					}
				}
			}
		}
	}
	JOINT Model60
	{
		OFFSET -4.38025 -2.14632 -1.11517
		CHANNELS 3 Zrotation Xrotation Yrotation
		JOINT Model61
		{
			OFFSET 0 0 -4.94998
			CHANNELS 3 Zrotation Xrotation Yrotation
			JOINT Model62
			{
				OFFSET -18.5642 0 0
				CHANNELS 3 Zrotation Xrotation Yrotation
				JOINT Model63
				{
					OFFSET -21.2884 0 0
					CHANNELS 3 Zrotation Xrotation Yrotation
					JOINT Model64
					{
						OFFSET -30.261 0 0
						CHANNELS 3 Zrotation Xrotation Yrotation
						JOINT Model65
						{
							OFFSET -11.7259 0 0
							CHANNELS 3 Zrotation Xrotation Yrotation
							JOINT Model66
							{
								OFFSET -10.682 0 0
								CHANNELS 3 Zrotation Xrotation Yrotation
								End Site
								{
									OFFSET 0 0 0
								}
							}
						}
					}
				}
			}
		}
	}
}
MOTION
Frames: 4
Frame Time: 0.033333
-336.899 175.049 -394.529 127.08 -82.6609 127 -180 4.29621e-031 -90 0.125247 -0.110741 -0.661808 0.249195 -0.223357 -1.32338 0.249195 -0.22292 -1.32338 -2.96892 -1.71058 1.60442 17.6126 -1.08621 2.25913 120.092 75.5343 58.4939 13.7653 3.69196 -1.2927 -167.277 84.4999 48.8109 164.701 -10.3613 -33.5513 3.3085e-006 14.6648 3.09616e-005 -0.00207138 0.653425 2.67993 2.35742e-007 1.04447 1.05296e-007 -0.563596 -0.0184371 3.74723 -72.0648 39.0385 39.3397 33.3638 2.10362 14.835 0.588947 0.308273 6.35287 -99.6409 81.413 100.35 -0.0181409 2.77629e-005 -0.117315 -0.124139 0.0024111 -0.799296 -79.8382 79.5773 80.5374 -0.000225765 -0.000220939 2.22032e-005 -0.00095621 0.000122873 -2.73088e-005 -66.7416 80.4058 67.2171 -0.00043712 1.59297e-005 -2.73118e-005 -0.000136587 -0.000109313 -5.46294e-005 -6.42159 81.2158 8.01779 -0.000218552 1.68873e-005 0.00021215 0.000901604 -0.00018483 -0.000218552 -59.9282 75.5373 58.5147 13.0092 4.81785 -0.929661 -167.277 84.4999 48.8109 170.195 -20.0574 -21.9388 7.14156e-006 -0.354259 2.90918e-005 -1.71228 5.52817 -0.0522 -3.2101e-006 8.31665 1.24211e-006 4.56869 -0.214196 -5.36576 -72.0648 39.0385 39.3397 33.3638 2.10361 14.835 0.588946 0.308273 6.35287 -99.6409 81.413 100.35 -0.0181409 3.00635e-005 -0.117315 -0.124139 0.00241111 -0.799296 -79.8382 79.5773 80.5374 -0.00026065 -0.00021858 2.35522e-005 -0.000956232 0.000122977 -2.73454e-005 -66.7416 80.4058 67.2171 -0.000437137 1.48666e-005 -2.73384e-005 -0.00013661 -0.000109303 -5.46654e-005 -6.42159 81.2158 8.01779 -0.000218572 1.95622e-005 0.000212282 0.000901575 -0.000191268 -0.000218586 0.000811311 0.56661 89.91 -12.9269 -3.96445 -10.1659 3.30414e-007 0.888394 -6.21204e-010 33.9387 -2.35207 -1.15525 -1.06435e-007 -3.59284 -1.03909e-007 -65.9817 -3.38859 1.05373 -35.4947 5.02715e-007 2.137e-007 -180 -0.566579 -90.09 -11.9104 -4.5395 -10.2889 1.20456e-007 0.271003 9.15335e-010 31.6024 -0.18763 -1.98957 3.75447e-007 -0.341058 -1.18086e-008 -65.6126 -3.13402 0.937028 -35.4947 2.4711e-007 1.32514e-008 
-336.905 175.049 -394.543 126.903 -82.6638 126.816 -180 4.29621e-031 -90 0.119429 -0.11268 -0.663804 0.237534 -0.227173 -1.32738 0.237534 -0.226736 -1.32738 -3.18243 -1.68466 1.69866 18.0535 -1.03631 2.13604 120.092 75.5343 58.4939 13.8724 3.65302 -1.32063 -167.277 84.4999 48.8109 164.747 -10.4088 -33.3954 3.35396e-006 14.5834 3.09501e-005 -0.0153096 0.935231 2.68814 2.34965e-007 1.46764 1.05313e-007 -0.816727 -0.0249309 3.49677 -72.0648 39.0385 39.3397 33.3638 2.10362 14.835 0.588947 0.308273 6.35287 -99.6409 81.413 100.35 -0.0181409 2.77629e-005 -0.117315 -0.124139 0.0024111 -0.799296 -79.8382 79.5773 80.5374 -0.000225765 -0.000220939 2.22032e-005 -0.00095621 0.000122873 -2.73088e-005 -66.7416 80.4058 67.2171 -0.00043712 1.59297e-005 -2.73118e-005 -0.000136587 -0.000109313 -5.46294e-005 -6.42159 81.2158 8.01779 -0.000218552 1.68873e-005 0.00021215 0.000901604 -0.00018483 -0.000218552 -59.9282 75.5373 58.5147 13.059 4.87911 -0.928196 -167.277 84.4999 48.8109 170.359 -20.0672 -21.7808 7.14134e-006 -0.353829 2.90918e-005 -1.71332 5.50026 -0.0518626 -3.20919e-006 8.27477 1.24198e-006 4.616 -0.225896 -5.60041 -72.0648 39.0385 39.3397 33.3638 2.10361 14.835 0.588946 0.308273 6.35287 -99.6409 81.413 100.35 -0.0181409 3.00635e-005 -0.117315 -0.124139 0.00241111 -0.799296 -79.8382 79.5773 80.5374 -0.00026065 -0.00021858 2.35522e-005 -0.000956232 0.000122977 -2.73454e-005 -66.7416 80.4058 67.2171 -0.000437137 1.48666e-005 -2.73384e-005 -0.00013661 -0.000109303 -5.46654e-005 -6.42159 81.2158 8.01779 -0.000218572 1.95622e-005 0.000212282 0.000901575 -0.000191268 -0.000218586 0.000811311 0.56661 89.91 -13.0026 -4.0786 -10.2733 3.30412e-007 0.776387 -6.21186e-010 33.9689 -2.20859 -1.09842 -1.06044e-007 -3.37756 -1.03885e-007 -65.9397 -3.25034 0.979115 -35.4947 5.00375e-007 2.11411e-007 -180 -0.566579 -90.09 -11.9401 -4.44714 -10.2462 1.20454e-007 0.375934 9.15345e-010 31.6462 -0.23424 -1.97881 3.75432e-007 -0.411104 -1.18087e-008 -65.5948 -3.21634 0.984908 -35.4947 3.03196e-007 9.08312e-009 
-336.916 175.048 -394.551 126.872 -82.6466 126.784 -180 4.29621e-031 -90 0.111062 -0.116394 -0.656997 0.220771 -0.23449 -1.31377 0.220771 -0.234053 -1.31377 -3.1445 -1.63025 1.55571 18.1997 -1.00611 2.25091 120.092 75.5343 58.4939 13.6182 3.694 -1.26375 -167.277 84.4999 48.8109 164.753 -10.4777 -33.6582 3.37165e-006 14.5517 3.09457e-005 -0.0213606 1.05261 2.75769 2.3464e-007 1.64395 1.05322e-007 -0.911294 -0.0271288 3.41022 -72.0648 39.0385 39.3397 33.3638 2.10362 14.835 0.588947 0.308273 6.35287 -99.6409 81.413 100.35 -0.0181409 2.77629e-005 -0.117315 -0.124139 0.0024111 -0.799296 -79.8382 79.5773 80.5374 -0.000225765 -0.000220939 2.22032e-005 -0.00095621 0.000122873 -2.73088e-005 -66.7416 80.4058 67.2171 -0.00043712 1.59297e-005 -2.73118e-005 -0.000136587 -0.000109313 -5.46294e-005 -6.42159 81.2158 8.01779 -0.000218552 1.68873e-005 0.00021215 0.000901604 -0.00018483 -0.000218552 -59.9282 75.5373 58.5147 13.1048 5.13322 -0.889364 -167.277 84.4999 48.8109 170.602 -20.1236 -21.7359 7.14215e-006 -0.355418 2.90918e-005 -1.72131 5.28903 -0.0493188 -3.20225e-006 7.95774 1.241e-006 4.70845 -0.230844 -5.61057 -72.0648 39.0385 39.3397 33.3638 2.10361 14.835 0.588946 0.308273 6.35287 -99.6409 81.413 100.35 -0.0181409 3.00635e-005 -0.117315 -0.124139 0.00241111 -0.799296 -79.8382 79.5773 80.5374 -0.00026065 -0.00021858 2.35522e-005 -0.000956232 0.000122977 -2.73454e-005 -66.7416 80.4058 67.2171 -0.000437137 1.48666e-005 -2.73384e-005 -0.00013661 -0.000109303 -5.46654e-005 -6.42159 81.2158 8.01779 -0.000218572 1.95622e-005 0.000212282 0.000901575 -0.000191268 -0.000218586 0.000811311 0.56661 89.91 -13.0255 -4.14838 -10.3375 3.30412e-007 0.710561 -6.21177e-010 33.9715 -2.14618 -1.08154 -1.05874e-007 -3.28391 -1.03875e-007 -65.9381 -3.24561 0.976579 -35.4947 4.9714e-007 2.05919e-007 -180 -0.566579 -90.09 -11.9401 -4.43481 -10.2389 1.20454e-007 0.389528 9.15346e-010 31.6567 -0.257567 -1.96477 3.75425e-007 -0.446133 -1.18087e-008 -65.6028 -3.2017 0.976044 -35.4947 3.94441e-007 2.52118e-009 
-336.926 175.05 -394.564 126.828 -82.6174 126.731 -180 4.29621e-031 -90 0.103673 -0.122237 -0.643136 0.205956 -0.246068 -1.28605 0.205956 -0.24563 -1.28606 -2.96164 -1.54605 1.23495 18.1029 -0.982641 2.52955 120.092 75.5343 58.4939 13.2257 3.81314 -1.16491 -167.277 84.4999 48.8109 164.796 -10.5455 -33.9947 3.36623e-006 14.5614 3.0947e-005 -0.0232425 1.09096 2.76178 2.34534e-007 1.70155 1.05325e-007 -0.869881 -0.0262763 3.46028 -72.0648 39.0385 39.3397 33.3638 2.10362 14.835 0.588947 0.308273 6.35287 -99.6409 81.413 100.35 -0.0181409 2.77629e-005 -0.117315 -0.124139 0.0024111 -0.799296 -79.8382 79.5773 80.5374 -0.000225765 -0.000220939 2.22032e-005 -0.00095621 0.000122873 -2.73088e-005 -66.7416 80.4058 67.2171 -0.00043712 1.59297e-005 -2.73118e-005 -0.000136587 -0.000109313 -5.46294e-005 -6.42159 81.2158 8.01779 -0.000218552 1.68873e-005 0.00021215 0.000901604 -0.00018483 -0.000218552 -59.9282 75.5373 58.5147 13.0154 5.42744 -0.814841 -167.277 84.4999 48.8109 170.77 -20.2157 -21.9358 7.1441e-006 -0.359259 2.90918e-005 -1.73006 5.05806 -0.0466149 -3.19467e-006 7.6111 1.23998e-006 4.73727 -0.230341 -5.56431 -72.0648 39.0385 39.3397 33.3638 2.10361 14.835 0.588946 0.308273 6.35287 -99.6409 81.413 100.35 -0.0181409 3.00635e-005 -0.117315 -0.124139 0.00241111 -0.799296 -79.8382 79.5773 80.5374 -0.00026065 -0.00021858 2.35522e-005 -0.000956232 0.000122977 -2.73454e-005 -66.7416 80.4058 67.2171 -0.000437137 1.48666e-005 -2.73384e-005 -0.00013661 -0.000109303 -5.46654e-005 -6.42159 81.2158 8.01779 -0.000218572 1.95622e-005 0.000212282 0.000901575 -0.000191268 -0.000218586 0.000811311 0.56661 89.91 -13.0126 -4.13517 -10.3087 3.30412e-007 0.713322 -6.21177e-010 33.9455 -2.15985 -1.11585 -1.05911e-007 -3.30441 -1.03877e-007 -65.9319 -3.30668 1.01136 -35.4947 4.9305e-007 1.97366e-007 -180 -0.566579 -90.09 -11.9341 -4.47038 -10.273 1.20454e-007 0.360303 9.15343e-010 31.6506 -0.24414 -1.9444 3.75429e-007 -0.425962 -1.18087e-008 -65.608 -3.19049 0.969323 -35.4947 5.18555e-007 -6.27834e-009 
